<mxfile host="app.diagrams.net" modified="2023-12-06T09:51:03.578Z" agent="Mozilla/5.0 (X11; Linux x86_64; rv:109.0) Gecko/20100101 Firefox/114.0" etag="CvKT3TZNOXIJDMVo80oM" version="22.1.5" type="device">
  <diagram name="Page-1" id="xlXR8uyccpj4ibzzxrPE">
    <mxGraphModel dx="2206" dy="1168" grid="1" gridSize="10" guides="1" tooltips="1" connect="1" arrows="1" fold="1" page="1" pageScale="1" pageWidth="850" pageHeight="1100" math="0" shadow="0">
      <root>
        <mxCell id="0" />
        <mxCell id="1" parent="0" />
        <mxCell id="610_4kDbLlDSDuGfA9E7-43" value="" style="ellipse;whiteSpace=wrap;html=1;" vertex="1" parent="1">
          <mxGeometry x="217.5" y="185" width="1420" height="870" as="geometry" />
        </mxCell>
        <mxCell id="610_4kDbLlDSDuGfA9E7-6" value="Corona" style="text;html=1;strokeColor=none;fillColor=none;align=center;verticalAlign=middle;whiteSpace=wrap;rounded=0;fontSize=20;" vertex="1" parent="1">
          <mxGeometry x="680" y="370" width="60" height="30" as="geometry" />
        </mxCell>
        <mxCell id="610_4kDbLlDSDuGfA9E7-11" value="Phtotosphere" style="text;html=1;strokeColor=none;fillColor=none;align=center;verticalAlign=middle;whiteSpace=wrap;rounded=0;fontSize=20;" vertex="1" parent="1">
          <mxGeometry x="940" y="430" width="60" height="30" as="geometry" />
        </mxCell>
        <mxCell id="610_4kDbLlDSDuGfA9E7-12" value="Cromosphere" style="text;html=1;strokeColor=none;fillColor=none;align=center;verticalAlign=middle;whiteSpace=wrap;rounded=0;fontSize=20;" vertex="1" parent="1">
          <mxGeometry x="950" y="780" width="60" height="30" as="geometry" />
        </mxCell>
        <mxCell id="610_4kDbLlDSDuGfA9E7-22" value="" style="ellipse;whiteSpace=wrap;html=1;aspect=fixed;" vertex="1" parent="1">
          <mxGeometry x="580" y="430" width="380" height="380" as="geometry" />
        </mxCell>
        <mxCell id="610_4kDbLlDSDuGfA9E7-21" value="" style="ellipse;whiteSpace=wrap;html=1;aspect=fixed;" vertex="1" parent="1">
          <mxGeometry x="610" y="460" width="320" height="320" as="geometry" />
        </mxCell>
        <mxCell id="610_4kDbLlDSDuGfA9E7-20" value="" style="ellipse;whiteSpace=wrap;html=1;aspect=fixed;" vertex="1" parent="1">
          <mxGeometry x="635" y="485" width="270" height="270" as="geometry" />
        </mxCell>
        <mxCell id="610_4kDbLlDSDuGfA9E7-19" value="" style="ellipse;whiteSpace=wrap;html=1;aspect=fixed;" vertex="1" parent="1">
          <mxGeometry x="655" y="505" width="230" height="230" as="geometry" />
        </mxCell>
        <mxCell id="610_4kDbLlDSDuGfA9E7-18" value="" style="ellipse;whiteSpace=wrap;html=1;aspect=fixed;" vertex="1" parent="1">
          <mxGeometry x="685" y="535" width="170" height="170" as="geometry" />
        </mxCell>
        <mxCell id="610_4kDbLlDSDuGfA9E7-17" value="" style="ellipse;whiteSpace=wrap;html=1;aspect=fixed;" vertex="1" parent="1">
          <mxGeometry x="730" y="580" width="80" height="80" as="geometry" />
        </mxCell>
        <mxCell id="610_4kDbLlDSDuGfA9E7-23" value="Core" style="text;html=1;strokeColor=none;fillColor=none;align=center;verticalAlign=middle;whiteSpace=wrap;rounded=0;fontSize=20;" vertex="1" parent="1">
          <mxGeometry x="740" y="605" width="60" height="30" as="geometry" />
        </mxCell>
        <mxCell id="610_4kDbLlDSDuGfA9E7-24" value="Radiation zone" style="text;html=1;strokeColor=none;fillColor=none;align=center;verticalAlign=middle;whiteSpace=wrap;rounded=0;fontSize=20;" vertex="1" parent="1">
          <mxGeometry x="470" y="820" width="160" height="30" as="geometry" />
        </mxCell>
        <mxCell id="610_4kDbLlDSDuGfA9E7-25" value="" style="endArrow=classic;html=1;rounded=0;" edge="1" parent="1">
          <mxGeometry width="50" height="50" relative="1" as="geometry">
            <mxPoint x="560" y="820" as="sourcePoint" />
            <mxPoint x="730" y="660" as="targetPoint" />
          </mxGeometry>
        </mxCell>
        <mxCell id="610_4kDbLlDSDuGfA9E7-26" value="Convection zone" style="text;html=1;strokeColor=none;fillColor=none;align=center;verticalAlign=middle;whiteSpace=wrap;rounded=0;fontSize=20;" vertex="1" parent="1">
          <mxGeometry x="425" y="500" width="160" height="30" as="geometry" />
        </mxCell>
        <mxCell id="610_4kDbLlDSDuGfA9E7-27" value="" style="endArrow=classic;html=1;rounded=0;" edge="1" parent="1">
          <mxGeometry width="50" height="50" relative="1" as="geometry">
            <mxPoint x="540" y="530" as="sourcePoint" />
            <mxPoint x="680" y="590" as="targetPoint" />
          </mxGeometry>
        </mxCell>
        <mxCell id="610_4kDbLlDSDuGfA9E7-28" value="" style="endArrow=classic;html=1;rounded=0;" edge="1" parent="1">
          <mxGeometry width="50" height="50" relative="1" as="geometry">
            <mxPoint x="940" y="460" as="sourcePoint" />
            <mxPoint x="840" y="520" as="targetPoint" />
          </mxGeometry>
        </mxCell>
        <mxCell id="610_4kDbLlDSDuGfA9E7-5" value="" style="endArrow=classic;html=1;rounded=0;" edge="1" parent="1">
          <mxGeometry width="50" height="50" relative="1" as="geometry">
            <mxPoint x="950" y="780" as="sourcePoint" />
            <mxPoint x="870" y="730" as="targetPoint" />
          </mxGeometry>
        </mxCell>
        <mxCell id="610_4kDbLlDSDuGfA9E7-15" value="" style="endArrow=classic;html=1;rounded=0;" edge="1" parent="1">
          <mxGeometry width="50" height="50" relative="1" as="geometry">
            <mxPoint x="710" y="400" as="sourcePoint" />
            <mxPoint x="730" y="450" as="targetPoint" />
          </mxGeometry>
        </mxCell>
        <mxCell id="610_4kDbLlDSDuGfA9E7-33" value="" style="ellipse;whiteSpace=wrap;html=1;aspect=fixed;" vertex="1" parent="1">
          <mxGeometry x="925" y="590" width="5" height="5" as="geometry" />
        </mxCell>
        <mxCell id="610_4kDbLlDSDuGfA9E7-34" value="" style="ellipse;whiteSpace=wrap;html=1;aspect=fixed;" vertex="1" parent="1">
          <mxGeometry x="925" y="617.5" width="5" height="5" as="geometry" />
        </mxCell>
        <mxCell id="610_4kDbLlDSDuGfA9E7-38" value="" style="ellipse;whiteSpace=wrap;html=1;aspect=fixed;" vertex="1" parent="1">
          <mxGeometry x="925" y="640" width="5" height="5" as="geometry" />
        </mxCell>
        <mxCell id="610_4kDbLlDSDuGfA9E7-39" value="" style="endArrow=classic;html=1;rounded=0;" edge="1" parent="1">
          <mxGeometry width="50" height="50" relative="1" as="geometry">
            <mxPoint x="1040" y="625" as="sourcePoint" />
            <mxPoint x="930" y="595" as="targetPoint" />
          </mxGeometry>
        </mxCell>
        <mxCell id="610_4kDbLlDSDuGfA9E7-40" value="" style="endArrow=classic;html=1;rounded=0;" edge="1" parent="1">
          <mxGeometry width="50" height="50" relative="1" as="geometry">
            <mxPoint x="1040" y="627.5" as="sourcePoint" />
            <mxPoint x="930" y="617.5" as="targetPoint" />
          </mxGeometry>
        </mxCell>
        <mxCell id="610_4kDbLlDSDuGfA9E7-41" value="" style="endArrow=classic;html=1;rounded=0;" edge="1" parent="1">
          <mxGeometry width="50" height="50" relative="1" as="geometry">
            <mxPoint x="1040" y="630" as="sourcePoint" />
            <mxPoint x="925" y="640" as="targetPoint" />
          </mxGeometry>
        </mxCell>
        <mxCell id="610_4kDbLlDSDuGfA9E7-42" value="Sunspots" style="text;html=1;strokeColor=none;fillColor=none;align=center;verticalAlign=middle;whiteSpace=wrap;rounded=0;fontSize=20;" vertex="1" parent="1">
          <mxGeometry x="1060" y="615" width="60" height="30" as="geometry" />
        </mxCell>
        <mxCell id="610_4kDbLlDSDuGfA9E7-45" value="Heliosphere (solar winds inside)" style="text;html=1;strokeColor=none;fillColor=none;align=center;verticalAlign=middle;whiteSpace=wrap;rounded=0;fontSize=20;" vertex="1" parent="1">
          <mxGeometry x="1275" y="595" width="320" height="30" as="geometry" />
        </mxCell>
      </root>
    </mxGraphModel>
  </diagram>
</mxfile>
